<svg width="80" height="80" xmlns="http://www.w3.org/2000/svg"><g fill-rule="nonzero" fill="none"><path fill="#1CB0F6" d="M0 5h40.59v40.33H0z"/><path d="M8.52 9.28a.82.82 0 0 0-.78.56l-.56 1.73H5.36A.82.82 0 0 0 4.89 13l1.47 1.07-.56 1.73a.82.82 0 0 0 1.25.91l1.47-1.07L10 16.75a.82.82 0 0 0 1.25-.91l-.56-1.73 1.44-1a.81.81 0 0 0 .24-1.11.82.82 0 0 0-.69-.37H9.86L9.3 9.9a.82.82 0 0 0-.78-.56v-.06zm11.88 0a.82.82 0 0 0-.78.56l-.56 1.73h-1.82a.82.82 0 0 0-.47 1.43l1.47 1.07-.56 1.73a.82.82 0 0 0 1.25.91l1.47-1.07 1.47 1.07A.82.82 0 0 0 23 16.5a.83.83 0 0 0 .11-.7l-.56-1.73 1.44-1a.81.81 0 0 0 .25-1.07.82.82 0 0 0-.69-.37h-1.82l-.56-1.73a.82.82 0 0 0-.78-.56l.01-.06zm11.87 0a.82.82 0 0 0-.78.56l-.56 1.73h-1.82a.82.82 0 0 0-.47 1.43l1.47 1.07-.56 1.73a.82.82 0 0 0 1.25.91l1.47-1.07 1.47 1.07a.82.82 0 0 0 1.25-.91l-.56-1.73 1.44-1a.81.81 0 0 0 .24-1.07.82.82 0 0 0-.69-.37H33.6L33 9.84a.82.82 0 0 0-.78-.56h.05zM8.52 21.15a.82.82 0 0 0-.78.56l-.56 1.73H5.36a.82.82 0 0 0-.48 1.48L6.36 26l-.56 1.73a.82.82 0 0 0 1.25.91l1.47-1.07L10 28.63a.82.82 0 0 0 1.25-.91L10.69 26l1.44-1a.81.81 0 0 0-.45-1.49H9.86l-.56-1.73a.82.82 0 0 0-.78-.56v-.07zm11.87 0a.82.82 0 0 0-.78.56l-.56 1.73h-1.82a.82.82 0 0 0-.48 1.48L18.24 26l-.56 1.73a.82.82 0 0 0 1.25.91l1.47-1.07 1.47 1.07a.82.82 0 0 0 1.25-.91L22.56 26 24 25a.81.81 0 0 0-.45-1.49h-1.82l-.56-1.73a.82.82 0 0 0-.78-.56v-.07zm11.88 0a.82.82 0 0 0-.78.56l-.56 1.73h-1.82a.82.82 0 0 0-.48 1.48L30.11 26l-.56 1.73a.82.82 0 0 0 1.25.91l1.47-1.07 1.47 1.07a.82.82 0 0 0 1.25-.91L34.44 26l1.44-1a.81.81 0 0 0-.45-1.49h-1.82L33 21.72a.82.82 0 0 0-.78-.56l.05-.01zM8.52 33a.82.82 0 0 0-.78.56l-.56 1.73H5.36a.82.82 0 0 0-.48 1.48l1.47 1.07-.56 1.73a.82.82 0 0 0 1.25.91l1.47-1.07L10 40.5a.82.82 0 0 0 1.25-.91l-.56-1.73 1.44-1a.81.81 0 0 0-.45-1.49H9.86l-.56-1.73a.82.82 0 0 0-.78-.56V33zm11.88 0a.82.82 0 0 0-.78.56l-.56 1.73h-1.82a.82.82 0 0 0-.48 1.48l1.47 1.07-.56 1.73a.82.82 0 0 0 1.25.91l1.47-1.07 1.47 1.07a.82.82 0 0 0 1.25-.91l-.56-1.73 1.44-1a.81.81 0 0 0-.45-1.49h-1.82l-.56-1.73a.82.82 0 0 0-.78-.56l.02-.06zm11.87 0a.82.82 0 0 0-.78.56l-.56 1.73h-1.82a.82.82 0 0 0-.48 1.48l1.47 1.07-.56 1.73a.82.82 0 0 0 1.25.91l1.47-1.07 1.47 1.07a.82.82 0 0 0 1.25-.91l-.56-1.73 1.44-1a.81.81 0 0 0-.45-1.49h-1.82L33 33.59a.82.82 0 0 0-.78-.56l.05-.03z" fill="#FFF"/><path d="M40.5 45.31H0V55h80v-9.67H40.5v-.02zM0 65.31h80V75H0v-9.69zM40.54 5H80v10H40.5l.04-10zm0 20.33H80V35H40.5l.04-9.67z" fill="#D33131"/><path d="M40.5 35H80v10.33H40.5V35zm0-20H80v10.33H40.5V15zM0 55h80v10.33H0z" fill="#FFF"/></g></svg>
