<svg width="80" height="80" xmlns="http://www.w3.org/2000/svg"><g transform="translate(0 -1)" fill-rule="nonzero" fill="none"><path fill="#FFF" d="M0 .06h80v80H0z"/><circle fill="#1CB0F6" cx="40.6" cy="38.98" r="18.44"/><path fill="#262626" d="M10.35 22.36l9.12-9.12 1.55 1.55-9.12 9.12zM12.27 24.33l9.12-9.13 1.56 1.56-9.12 9.12zM14.14 26.2l9.12-9.12 1.55 1.55-9.12 9.13zM14.14 50.41l1.56-1.55 9.12 9.12-1.55 1.56zM10.38 54.25l1.55-1.55 9.12 9.12-1.55 1.55zM12.26 52.33l1.55-1.56 4.24 4.25-1.55 1.55zM17.05 57.19l1.56-1.56 4.31 4.31-1.55 1.56zM58.84 59.88l4.25-4.24 1.55 1.56-4.24 4.24zM63.68 55.12l4.31-4.31 1.56 1.55-4.31 4.32zM60.71 61.77l4.24-4.24 1.56 1.56-4.25 4.24zM65.56 57l4.31-4.31 1.56 1.55-4.31 4.32zM57 58l4.24-4.24 1.56 1.55-4.25 4.25zM61.79 53.21l4.31-4.31 1.56 1.55-4.31 4.31zM58.82 16.88l1.55-1.56 9.12 9.12L67.94 26zM65.63 19.85l1.56-1.56 4.24 4.24-1.55 1.56zM60.71 15l1.56-1.55 4.31 4.31L65 19.29zM61.84 23.62l1.55-1.56 4.24 4.24-1.55 1.56zM57 18.71l1.55-1.56 4.32 4.32L61.33 23z"/><path d="M59 39c.041-9.722-7.477-17.805-17.177-18.465-9.7-.661-18.245 6.327-19.523 15.965a11.27 11.27 0 0 0 10 6.06c8.35 0 8-7.05 16.25-7.05a10.84 10.84 0 0 1 10.2 6.66V42c.07-.43.13-.86.18-1.3A16.11 16.11 0 0 0 59 39z" fill="#D33131"/></g></svg>
